<svg xmlns="http://www.w3.org/2000/svg" width="256" height="256"><path fill="#1976D2" fill-opacity=".016" fill-rule="evenodd" d="M0 128.004v128.004l128.25-.254 128.25-.254.254-127.75L257.008 0H0zm.485.496c0 70.4.119 99.053.265 63.672s.146-92.98 0-128S.485 58.1.485 128.5"/><path fill="#1976D2" fill-opacity=".574" fill-rule="evenodd" d="M153.36 1.407c-12.776 2.443-21.779 6.302-33.158 14.214L113.904 20H0v32h44.979l.261 44.75.26 44.75 13.75.278 13.75.278V52h18.79l-1.894 6.086C85.74 71.44 85.61 90.667 89.585 104c2.056 6.895 7.417 18 8.69 18 .527 0 3.608-2.454 6.847-5.453l5.89-5.452 45.244-.298c41.495-.272 45.52-.447 48.573-2.113 5.636-3.076 7.7-11.217 3.383-13.342-.942-.463-19.194-1.067-40.56-1.342l-38.849-.5L142.496 81l13.693-12.5 30.989-.5 30.989-.5 2.916-3.266c3.112-3.484 3.941-8.81 1.717-11.034-.902-.902-14.477-1.209-54.75-1.238l-53.55-.038 5.049-4.712c2.776-2.592 10.629-9.662 17.449-15.712l12.4-11 35.527-.5 35.528-.5-5.262-3.861c-7.411-5.438-17.866-10.378-26.936-12.726C178.192.308 162.627-.364 153.36 1.407m89.247 75.386c-4.31 2.312-4.674 2.748-3.059 3.666 2.434 1.381 5.56 4.463 7.65 7.541 1.663 2.449 1.698 2.332 1.75-5.75.028-4.537-.286-8.212-.698-8.166s-2.952 1.265-5.643 2.709M230.5 130.612c-4.471 3.46-12.4 6.738-20.953 8.663-8.062 1.814-13.784 2.101-52.547 2.63l-43.5.595 5 3.777c2.75 2.077 9.275 5.902 14.5 8.5l9.5 4.723 23.113.315 23.113.316 7.98-3.078c13.658-5.267 30.996-18.022 35.217-25.909 1.353-2.528 1.22-2.578-1.423-.532m-194 54.341c-14.15 3.529-23.358 14.366-24.255 28.547-.805 12.733 5.694 23.851 17.271 29.547 4.24 2.087 6.403 2.451 14.484 2.438 8.317-.013 10.123-.343 14.5-2.651 2.75-1.45 6.104-3.82 7.454-5.266l2.454-2.631-4.122-4.122c-3.867-3.866-4.227-4.017-5.808-2.435-3.168 3.167-9.331 5.62-14.122 5.62-16.931 0-25.401-20.191-13.474-32.118 4.223-4.222 10.638-6.382 15.981-5.38 4.289.805 10.277 3.757 12.117 5.973 1.209 1.458 1.782 1.193 5.665-2.617 4.154-4.077 4.253-4.314 2.587-6.179-6.402-7.166-20.704-11.227-30.732-8.726m39.167.714c-.367.366-.667 13.866-.667 30V245h13l.178-10.25c.098-5.637.175-11.037.171-12-.007-1.58 1.291-1.75 13.322-1.75H115v24h13v-60h-13v24H88v-24h-5.833c-3.209 0-6.134.3-6.5.667m70.071 27.544c-6.41 15.559-11.955 29.098-12.322 30.088-.608 1.637-.057 1.771 6.146 1.5l6.813-.299 2.929-7.25 2.929-7.25h24.305l2.863 7.5 2.864 7.5h6.935c6.158 0 6.87-.196 6.356-1.75-.318-.963-5.703-14.35-11.966-29.75l-11.386-28-7.406-.289-7.405-.288zM197 191v6h20v48h13v-47.928l9.75-.286 9.75-.286.3-5.75.3-5.75H197zm-36.318 17.237c-2.025 5.116-3.682 9.631-3.682 10.032 0 .402 3.405.731 7.567.731 8.698 0 8.382 1.218 3.086-11.911l-3.29-8.154z"/><path fill="#1976D2" fill-opacity=".354" fill-rule="evenodd" d="M155.899 2.622C155.27 3.38 154.135 4 153.378 4 152.349 4 152 5.646 152 10.5c0 6.307.076 6.5 2.559 6.5 1.451 0 2.292.433 1.941 1-.4.648 4.103 1 12.781 1 7.369 0 21.683.254 31.809.564l18.41.565-3.459-3.062C211.514 13.06 199.292 6.778 190.5 3.94c-8.677-2.802-32.613-3.713-34.601-1.318M0 35.5V51h46v90.058l13.25-.279 13.25-.279.26-44.576.26-44.576 3.74-.924 3.74-.924.281-13.491c.245-11.813.066-13.648-1.441-14.75C78.026 20.298 68.426 20 38.809 20H0zm164.25 17.247-12.25.315v7.969c0 7.277.854 9.632 2.518 6.939.417-.674 11.315-.988 31.599-.911 34.052.131 34.338.085 36.843-5.962 1.87-4.515.71-7.713-3.072-8.469-3.008-.602-29.796-.545-55.638.119M246.2 76.2c-1.614 1.614-1.458 6.725.3 9.8 1.346 2.355 1.431 2.109 1.465-4.25.019-3.713-.1-6.75-.265-6.75s-.84.54-1.5 1.2M239 80c1.939 1.253 3 1.253 3 0 0-.55-1.012-.993-2.25-.985-1.819.013-1.963.201-.75.985m-81.5 16c-.34.55-1.716 1-3.059 1-2.285 0-2.441.343-2.441 5.378v5.379l7.541 1.121c11.594 1.725 40.867 1.479 44.448-.372 5.73-2.963 8.129-10.302 4.077-12.471-2.571-1.376-49.717-1.409-50.566-.035m72 35.646c-3.981 3.149-12.718 6.555-21.353 8.324-12.126 2.484-13.147 3.243-13.147 9.771 0 5.013.123 5.259 2.631 5.259 4.326 0 18.16-8.057 25.534-14.871 7.531-6.96 12.038-12.995 6.335-8.483M115 142.6c0 1.407 11.683 8.947 19.441 12.547 7.006 3.251 15.193 4.664 20.013 3.454 2.421-.608 2.546-.978 2.546-7.561 0-3.807-.434-7.19-.965-7.519-1.66-1.025-41.035-1.909-41.035-.921m-83.219 44.339c-7.515 2.937-12.337 7.414-15.996 14.848-5.817 11.82-4.094 24.331 4.691 34.055 5.795 6.414 13.328 9.556 23.045 9.612 7.068.041 8.8-.337 14.573-3.179 3.603-1.774 7.386-4.148 8.407-5.276 1.824-2.016 1.79-2.116-2.018-6.016-3.82-3.912-3.9-3.94-5.928-2.091C45.677 240.636 25 232.389 25 215.508 25 203.949 32.742 196 44 196c5.187 0 11.463 2.444 13.939 5.427.718.865 1.838 1.573 2.487 1.573 1.463 0 7.574-6.196 7.574-7.679 0-1.706-6.757-6.421-12.129-8.462-6.453-2.452-17.71-2.415-24.09.08M76 215.099V245h12v-24h28v24h12.03l-.265-29.75-.265-29.75-5.75-.151-5.75-.152V209H88.063l-.281-11.75-.282-11.75-5.75-.151-5.75-.152zm79.822-25.188c-1.083 2.524-6.487 15.614-12.01 29.089s-10.241 24.838-10.485 25.25c-.245.412 2.469.75 6.029.75h6.475l2.949-7.75 2.948-7.75 11.803-.283c6.954-.167 12.214.128 12.805.719.552.552 2.174 4.054 3.606 7.783l2.604 6.781 6.684.295 6.685.294-11.624-28.794c-6.393-15.837-12.072-29.379-12.62-30.093-.666-.869-3.122-1.228-7.437-1.089l-6.443.209zm41.821-4.221c-.354.354-.643 2.818-.643 5.477V196h20v49h13v-49h20.105l-.303-5.25-.302-5.25-25.607-.227c-14.084-.124-25.896.063-26.25.417m-37.542 22.669c-2.255 5.77-4.101 10.749-4.101 11.066 0 .73 15.48.762 16.208.033.453-.452-6.725-20.307-7.69-21.273-.174-.174-2.161 4.405-4.417 10.174"/><path fill="#1976D2" fill-opacity=".971" fill-rule="evenodd" d="M.517 20.972c-.33.535-.538 7.51-.462 15.5L.193 51h18.975c15.112 0 19.266-.291 20.403-1.429C40.668 48.475 41 45.017 41 34.702v-13.44l-3.75-.62c-6.12-1.012-36.07-.742-36.733.33m115.634 122.71c1.675 2.018 15.061 10.11 17.349 10.488 1.723.284 2.036-.293 2.261-4.17.143-2.475-.082-5.01-.5-5.634-.443-.66-4.835-1.321-10.491-1.579-8.052-.367-9.539-.213-8.619.895M35 185.935c-4.95 1.511-10.569 4.967-14.195 8.73-5.601 5.813-7.757 11.47-7.783 20.425-.036 12.267 5.556 21.593 16.204 27.025 11.124 5.675 26.045 3.779 36.251-4.606l2.977-2.446-3.423-3.531c-1.883-1.943-3.789-3.532-4.236-3.532s-2.646 1.328-4.886 2.951c-7.508 5.438-17.551 4.937-24.571-1.227-4.534-3.981-6.338-8.192-6.338-14.791 0-6.328 2.175-11.107 6.781-14.904 7.249-5.975 17.347-5.847 25.435.322l3.419 2.608 3.737-3.828 3.738-3.828-3.473-3.049c-6.809-5.978-20.907-8.984-29.637-6.319M76 215.5V245h12v-25.056l13.75.278 13.75.278.281 12.299.281 12.299 5.719-.299 5.719-.299.281-27c.154-14.85.033-28.012-.269-29.25-.487-1.991-1.178-2.25-5.999-2.25h-5.45l-.281 11.75-.282 11.75-13.75.278-13.75.278V186H76zm69.738-.734c-6.47 15.804-11.757 29.072-11.75 29.484s2.6.748 5.762.747l5.75-.004 3.038-7.746 3.038-7.747 12.616-.279 12.617-.279 2.957 7.779 2.958 7.779 6.138.298c3.376.163 6.144-.062 6.151-.5.007-.439-5.226-13.735-11.629-29.548L171.742 186l-7.121.016-7.121.016zM198 191v5h20v49h11v-49h20v-10h-51zm-34.92 9.25a1660 1660 0 0 1-3.976 10.026c-1.707 4.277-3.104 8.214-3.104 8.75 0 .556 3.651.974 8.5.974 4.675 0 8.5-.259 8.5-.575 0-1.108-8.156-21.425-8.601-21.425-.246 0-.84 1.012-1.319 2.25"/></svg>